<svg width="32" height="32" viewBox="0 0 32 32" fill="none" xmlns="http://www.w3.org/2000/svg">
  <!-- Dark background -->
  <rect width="32" height="32" rx="4" fill="#2B2B2B"/>
  
  <!-- Bold "G" in G'day Group gold -->
  <path d="M16 5C10.48 5 6 9.48 6 15C6 20.52 10.48 25 16 25C19.59 25 22.64 23.09 24.36 20.18L20.73 18.27C19.68 20.09 17.95 21.33 16 21.33C12.69 21.33 9.67 18.31 9.67 15C9.67 11.69 12.69 8.67 16 8.67C17.95 8.67 19.68 9.91 20.73 11.73L24.36 9.82C22.64 6.91 19.59 5 16 5Z" fill="#FFD700"/>
  
  <!-- G opening bars -->
  <rect x="16" y="13.5" width="8" height="3" fill="#FFD700"/>
  <rect x="19" y="16.5" width="5" height="3" fill="#FFD700"/>
</svg> 